<svg xmlns="http://www.w3.org/2000/svg" viewBox="0 0 800 600" width="800" height="600"><defs><linearGradient id="g" x1="0" y1="0" x2="0" y2="1"><stop offset="0" stop-color="#F0F6F5"/><stop offset="1" stop-color="#DDEBEA"/></linearGradient></defs><rect width="800" height="600" fill="url(#g)"/><rect x="80" y="80" width="640" height="440" fill="#F0F6F5"/><rect x="88.0" y="88.0" width="71.0" height="78.4" rx="3" fill="#4C9C9C"/><rect x="167.0" y="88.0" width="71.0" height="78.4" rx="3" fill="#DDEBEA"/><rect x="246.0" y="88.0" width="71.0" height="78.4" rx="3" fill="#DDEBEA"/><rect x="325.0" y="88.0" width="71.0" height="78.4" rx="3" fill="#4C9C9C"/><rect x="404.0" y="88.0" width="71.0" height="78.4" rx="3" fill="#DDEBEA"/><rect x="483.0" y="88.0" width="71.0" height="78.4" rx="3" fill="#DDEBEA"/><rect x="562.0" y="88.0" width="71.0" height="78.4" rx="3" fill="#4C9C9C"/><rect x="641.0" y="88.0" width="71.0" height="78.4" rx="3" fill="#DDEBEA"/><rect x="88.0" y="174.4" width="71.0" height="78.4" rx="3" fill="#DDEBEA"/><rect x="167.0" y="174.4" width="71.0" height="78.4" rx="3" fill="#DDEBEA"/><rect x="246.0" y="174.4" width="71.0" height="78.4" rx="3" fill="#4C9C9C"/><rect x="325.0" y="174.4" width="71.0" height="78.4" rx="3" fill="#DDEBEA"/><rect x="404.0" y="174.4" width="71.0" height="78.4" rx="3" fill="#DDEBEA"/><rect x="483.0" y="174.4" width="71.0" height="78.4" rx="3" fill="#4C9C9C"/><rect x="562.0" y="174.4" width="71.0" height="78.4" rx="3" fill="#DDEBEA"/><rect x="641.0" y="174.4" width="71.0" height="78.4" rx="3" fill="#DDEBEA"/><rect x="88.0" y="260.8" width="71.0" height="78.4" rx="3" fill="#DDEBEA"/><rect x="167.0" y="260.8" width="71.0" height="78.4" rx="3" fill="#4C9C9C"/><rect x="246.0" y="260.8" width="71.0" height="78.4" rx="3" fill="#DDEBEA"/><rect x="325.0" y="260.8" width="71.0" height="78.4" rx="3" fill="#DDEBEA"/><rect x="404.0" y="260.8" width="71.0" height="78.4" rx="3" fill="#4C9C9C"/><rect x="483.0" y="260.8" width="71.0" height="78.4" rx="3" fill="#DDEBEA"/><rect x="562.0" y="260.8" width="71.0" height="78.4" rx="3" fill="#DDEBEA"/><rect x="641.0" y="260.8" width="71.0" height="78.4" rx="3" fill="#4C9C9C"/><rect x="88.0" y="347.2" width="71.0" height="78.4" rx="3" fill="#4C9C9C"/><rect x="167.0" y="347.2" width="71.0" height="78.4" rx="3" fill="#DDEBEA"/><rect x="246.0" y="347.2" width="71.0" height="78.4" rx="3" fill="#DDEBEA"/><rect x="325.0" y="347.2" width="71.0" height="78.4" rx="3" fill="#4C9C9C"/><rect x="404.0" y="347.2" width="71.0" height="78.4" rx="3" fill="#DDEBEA"/><rect x="483.0" y="347.2" width="71.0" height="78.4" rx="3" fill="#DDEBEA"/><rect x="562.0" y="347.2" width="71.0" height="78.4" rx="3" fill="#4C9C9C"/><rect x="641.0" y="347.2" width="71.0" height="78.4" rx="3" fill="#DDEBEA"/><rect x="88.0" y="433.6" width="71.0" height="78.4" rx="3" fill="#DDEBEA"/><rect x="167.0" y="433.6" width="71.0" height="78.4" rx="3" fill="#DDEBEA"/><rect x="246.0" y="433.6" width="71.0" height="78.4" rx="3" fill="#4C9C9C"/><rect x="325.0" y="433.6" width="71.0" height="78.4" rx="3" fill="#DDEBEA"/><rect x="404.0" y="433.6" width="71.0" height="78.4" rx="3" fill="#DDEBEA"/><rect x="483.0" y="433.6" width="71.0" height="78.4" rx="3" fill="#4C9C9C"/><rect x="562.0" y="433.6" width="71.0" height="78.4" rx="3" fill="#DDEBEA"/><rect x="641.0" y="433.6" width="71.0" height="78.4" rx="3" fill="#DDEBEA"/><rect x="30" y="548" width="34" height="34" rx="5" fill="#F4A62A" opacity="0.9"/><rect x="70" y="548" width="34" height="34" rx="5" fill="#2563EB" opacity="0.9"/><rect x="110" y="548" width="34" height="34" rx="5" fill="#25D366" opacity="0.9"/><rect x="150" y="548" width="34" height="34" rx="5" fill="#2f6e6e" opacity="0.9"/></svg>